name C:\Users\r0593348\3dpredictsim\Results\Batchsim_tmt_linear_v2\Pog_s1_tmt_aCst_d02_k250_ig24_act.mot
datacolumns 128
datarows 4
range 1.17960961 1.21499790
endheader
time	pelvis_tilt	pelvis_list	pelvis_rotation	pelvis_tx	pelvis_ty	pelvis_tz	hip_flexion_l	hip_adduction_l	hip_rotation_l	hip_flexion_r	hip_adduction_r	hip_rotation_r	knee_angle_l	knee_angle_r	ankle_angle_l	ankle_angle_r	subtalar_angle_l	subtalar_angle_r	tmt_angle_l	tmt_angle_r	mtp_angle_l	mtp_angle_r	lumbar_extension	lumbar_bending	lumbar_rotation	arm_flex_l	arm_add_l	arm_rot_l	arm_flex_r	arm_add_r	arm_rot_r	elbow_flex_l	elbow_flex_r	pro_sup_l	pro_sup_r	glut_med1_l/activation	glut_med2_l/activation	glut_med3_l/activation	glut_min1_l/activation	glut_min2_l/activation	glut_min3_l/activation	semimem_l/activation	semiten_l/activation	bifemlh_l/activation	bifemsh_l/activation	sar_l/activation	add_long_l/activation	add_brev_l/activation	add_mag1_l/activation	add_mag2_l/activation	add_mag3_l/activation	tfl_l/activation	pect_l/activation	grac_l/activation	glut_max1_l/activation	glut_max2_l/activation	glut_max3_l/activation	iliacus_l/activation	psoas_l/activation	quad_fem_l/activation	gem_l/activation	peri_l/activation	rect_fem_l/activation	vas_med_l/activation	vas_int_l/activation	vas_lat_l/activation	med_gas_l/activation	lat_gas_l/activation	soleus_l/activation	tib_post_l/activation	flex_dig_l/activation	flex_hal_l/activation	tib_ant_l/activation	per_brev_l/activation	per_long_l/activation	per_tert_l/activation	ext_dig_l/activation	ext_hal_l/activation	ercspn_l/activation	intobl_l/activation	extobl_l/activation	glut_med1_r/activation	glut_med2_r/activation	glut_med3_r/activation	glut_min1_r/activation	glut_min2_r/activation	glut_min3_r/activation	semimem_r/activation	semiten_r/activation	bifemlh_r/activation	bifemsh_r/activation	sar_r/activation	add_long_r/activation	add_brev_r/activation	add_mag1_r/activation	add_mag2_r/activation	add_mag3_r/activation	tfl_r/activation	pect_r/activation	grac_r/activation	glut_max1_r/activation	glut_max2_r/activation	glut_max3_r/activation	iliacus_r/activation	psoas_r/activation	quad_fem_r/activation	gem_r/activation	peri_r/activation	rect_fem_r/activation	vas_med_r/activation	vas_int_r/activation	vas_lat_r/activation	med_gas_r/activation	lat_gas_r/activation	soleus_r/activation	tib_post_r/activation	flex_dig_r/activation	flex_hal_r/activation	tib_ant_r/activation	per_brev_r/activation	per_long_r/activation	per_tert_r/activation	ext_dig_r/activation	ext_hal_r/activation	ercspn_r/activation	intobl_r/activation	extobl_r/activation	
          1.17960961	          1.51022814	          3.85415694	          4.83289628	          1.47451202	          0.87944797	         -0.00376444	        -11.67142141	          4.52611174	         -2.57759703	         23.39258711	         -3.11540313	         -4.08140839	        -27.58006895	        -10.97704202	        -35.51368321	          7.75357599	        -12.65933396	          2.63701218	          2.54883591	          0.17468131	         45.38686463	         -0.03177236	         -0.76233853	         -5.44952271	         -1.67439609	          3.05841204	        -13.51708771	          9.18767213	        -15.49662761	        -13.45154494	         17.08593126	         24.14196698	         19.11628649	         86.51662706	         86.51662706	          0.22912225	          0.05000010	          0.05000014	          0.16104373	          0.05000062	          0.05000245	          0.08514967	          0.05000006	          0.05000012	          0.05197152	          0.05983319	          0.29711118	          0.19969512	          0.05000266	          0.05000107	          0.05000016	          0.06555187	          0.09156267	          0.08566750	          0.05000061	          0.05000042	          0.05000054	          0.26788147	          0.46742933	          0.22188285	          0.08679708	          0.08265528	          0.35890566	          0.13271212	          0.13388625	          0.11965805	          0.13616314	          0.08566716	          0.26620813	          0.13065067	          0.05982894	          0.07653926	          0.25969597	          0.21352755	          0.12311556	          0.46170740	          0.72674288	          0.11133682	          0.05000000	          0.05000006	          0.10643075	          0.05983029	          0.07049573	          0.08202422	          0.05983014	          0.05983011	          0.05982929	          0.14815078	          0.12266524	          0.14656269	          0.05983011	          0.05000016	          0.08566851	          0.10251035	          0.10881144	          0.14677740	          0.16725404	          0.05000005	          0.05000169	          0.10251046	          0.05617327	          0.10798421	          0.23222675	          0.05000011	          0.05000005	          0.05000009	          0.05000132	          0.12248407	          0.05000005	          0.11612873	          0.15959001	          0.09570757	          0.06418348	          0.07159240	          0.06677786	          0.05000000	          0.05000005	          0.05000040	          0.56832597	          0.28717146	          0.22005682	          0.24292453	          0.57932428	          0.46995399	          0.05000000	          0.11583890	          0.10251056	
          1.19140571	          1.52906386	          4.02053346	          4.90307630	          1.49352033	          0.87700458	         -0.00361461	        -11.94549090	          4.31911985	         -2.74898598	         23.04720759	         -3.13446176	         -3.84466976	        -28.73569196	        -11.93028913	        -36.77693568	          6.61682569	        -11.70726951	          2.10864440	          2.03831207	          0.14260461	         43.43071572	         -0.01506008	         -0.55338201	         -5.28452501	         -1.75384032	          2.88230695	        -13.56611543	          9.48650454	        -16.93356966	        -13.46681706	         17.41669301	         24.79402420	         19.12780099	         86.51662706	         86.51662706	          0.19147748	          0.05983020	          0.06162134	          0.13458427	          0.05000012	          0.05983020	          0.11955820	          0.05982997	          0.05983103	          0.05000014	          0.05000267	          0.33380657	          0.26578336	          0.07839611	          0.05983040	          0.05983133	          0.05478174	          0.07651912	          0.07159272	          0.05983039	          0.05983032	          0.05983046	          0.22386856	          0.39063074	          0.25700320	          0.07253706	          0.06907506	          0.29993748	          0.11748954	          0.15881491	          0.13524874	          0.11379157	          0.07159211	          0.22247015	          0.10918478	          0.05000057	          0.06396388	          0.33989479	          0.17844504	          0.10416436	          0.58338723	          0.82608601	          0.09304530	          0.05000000	          0.07159278	          0.10243963	          0.05000019	          0.05891333	          0.13858456	          0.05000007	          0.05000007	          0.05000015	          0.12380962	          0.10251135	          0.12248245	          0.05000003	          0.05000006	          0.07159321	          0.08566796	          0.09093380	          0.12266195	          0.15484395	          0.05983032	          0.05000231	          0.08566802	          0.05983008	          0.11822175	          0.20346117	          0.05000004	          0.05000127	          0.14129807	          0.06170655	          0.10236000	          0.08993478	          0.31678140	          0.33072481	          0.26790374	          0.05363814	          0.05982978	          0.05580626	          0.05982998	          0.05983020	          0.05983009	          0.55037055	          0.27516419	          0.23463264	          0.50663931	          0.48414134	          0.39274058	          0.05000000	          0.09680657	          0.08566809	
          1.20320181	          1.55331606	          4.16275561	          4.94718998	          1.51261269	          0.87418269	         -0.00345634	        -12.11880030	          4.11563863	         -2.87953855	         22.50231373	         -3.15668087	         -3.57328695	        -30.13747426	        -13.08762052	        -37.54867208	          5.72101811	        -10.77854486	          1.50521310	          1.58234002	         -0.17240270	         40.23440320	         -0.19100899	         -0.34065131	         -5.08665677	         -1.82850374	          2.69088519	        -13.62719525	          9.81732935	        -18.33067715	        -13.48972118	         17.75051024	         25.37785215	         19.08905954	         86.51662706	         86.51662706	          0.21016809	          0.05000011	          0.05149696	          0.16751690	          0.07159193	          0.05000014	          0.15794343	          0.05000006	          0.05000085	          0.05000014	          0.05983027	          0.27896218	          0.22211520	          0.06551570	          0.05000069	          0.05000110	          0.08142516	          0.06394756	          0.05983007	          0.05000040	          0.05000029	          0.05000039	          0.18708699	          0.40853001	          0.21477759	          0.06061924	          0.05772604	          0.25065778	          0.09818625	          0.14677778	          0.11302752	          0.09509569	          0.05983023	          0.18591832	          0.09124572	          0.05000052	          0.05345464	          0.31959672	          0.15635327	          0.09511896	          0.76678718	          0.90264587	          0.35736615	          0.05000009	          0.05983009	          0.08560893	          0.22606333	          0.25870901	          0.35461910	          0.24220667	          0.21780423	          0.29856630	          0.10346771	          0.08566890	          0.10235860	          0.08566815	          0.07159291	          0.05983047	          0.07159274	          0.07599339	          0.10250862	          0.15645148	          0.05000023	          0.05982925	          0.07159351	          0.05000008	          0.12015490	          0.19820887	          0.05597420	          0.05000011	          0.11808281	          0.05982936	          0.29973688	          0.07515850	          0.26473423	          0.27638674	          0.22388717	          0.05000000	          0.05000000	          0.05000000	          0.05000000	          0.05000012	          0.05000004	          0.61498317	          0.28153341	          0.19608252	          0.72382503	          0.64958864	          0.49706818	          0.05000000	          0.09968497	          0.07159283	
          1.21499790	          1.57996203	          4.27065456	          4.95244660	          1.53152252	          0.87128130	         -0.00326570	        -12.14912868	          3.90367810	         -2.97866938	         21.88984241	         -3.14208591	         -3.32197634	        -31.77425380	        -14.21038785	        -37.90419096	          5.09238901	         -9.85790209	          0.83165180	          1.14489035	         -0.05742736	         35.77968450	         -0.20455244	         -0.14287200	         -4.84325978	         -1.89303604	          2.52450174	        -13.68632361	         10.19460052	        -19.62720484	        -13.51509354	         18.08880069	         25.85219366	         18.97786693	         86.51662706	         86.51662706	          0.17563749	          0.05000069	          0.05000015	          0.13999390	          0.05982951	          0.05000109	          0.19873294	          0.05000002	          0.05000019	          0.05000001	          0.05000026	          0.27760325	          0.19305212	          0.07355447	          0.05000267	          0.09808892	          0.06804707	          0.05344114	          0.05000011	          0.05000621	          0.05001770	          0.09155696	          0.15634861	          0.40360301	          0.17948978	          0.05166384	          0.05000019	          0.20947472	          0.12266426	          0.12266414	          0.09445720	          0.07947152	          0.05000028	          0.15537196	          0.07625406	          0.05000017	          0.05000003	          0.32489789	          0.13066450	          0.08566796	          0.66593447	          0.94550275	          0.29865091	          0.09011255	          0.05000001	          0.07154339	          0.29484565	          0.39222978	          0.49451284	          0.43958426	          0.38979756	          0.44645529	          0.08646797	          0.07159351	          0.08554109	          0.07159288	          0.05983024	          0.05000034	          0.05983007	          0.06350770	          0.08566648	          0.13452559	          0.05000022	          0.05000027	          0.05983073	          0.26323382	          0.20340962	          0.17095847	          0.05000003	          0.05000003	          0.09868183	          0.05000076	          0.25049198	          0.06280997	          0.34979104	          0.38352897	          0.30067608	          0.05000000	          0.05000001	          0.05000000	          0.11143385	          0.05000036	          0.05000021	          0.77042177	          0.23527749	          0.16386618	          0.60490062	          0.57600214	          0.54778732	          0.05000051	          0.08330673	          0.05983013	
